# Blender v3.0.0 OBJ File: ''
# www.blender.org
mtllib InnerCylinder.mtl
o Cylinder
v 0.000000 -1.000000 -1.000000
v 0.000000 1.000000 -1.000000
v 0.540641 -1.000000 -0.841254
v 0.540641 1.000000 -0.841254
v 0.909632 -1.000000 -0.415415
v 0.909632 1.000000 -0.415415
v 0.989821 -1.000000 0.142315
v 0.989821 1.000000 0.142315
v 0.755750 -1.000000 0.654861
v 0.755750 1.000000 0.654861
v 0.281733 -1.000000 0.959493
v 0.281733 1.000000 0.959493
v -0.281733 -1.000000 0.959493
v -0.281733 1.000000 0.959493
v -0.755750 -1.000000 0.654861
v -0.755750 1.000000 0.654861
v -0.989821 -1.000000 0.142315
v -0.989821 1.000000 0.142315
v -0.909632 -1.000000 -0.415415
v -0.909632 1.000000 -0.415415
v -0.540641 -1.000000 -0.841253
v -0.540641 1.000000 -0.841253
vt 1.000000 0.500000
vt 0.909091 0.500000
vt 0.909091 1.000000
vt 1.000000 1.000000
vt 0.818182 0.500000
vt 0.818182 1.000000
vt 0.727273 0.500000
vt 0.727273 1.000000
vt 0.636364 0.500000
vt 0.636364 1.000000
vt 0.545454 0.500000
vt 0.545454 1.000000
vt 0.454545 0.500000
vt 0.454545 1.000000
vt 0.363636 0.500000
vt 0.363636 1.000000
vt 0.272727 0.500000
vt 0.272727 1.000000
vt 0.181818 0.500000
vt 0.181818 1.000000
vt 0.379754 0.451901
vt 0.468312 0.349700
vt 0.487557 0.215844
vt 0.431380 0.092833
vt 0.317616 0.019722
vt 0.182384 0.019722
vt 0.068620 0.092833
vt 0.012443 0.215844
vt 0.031688 0.349700
vt 0.120246 0.451901
vt 0.250000 0.490000
vt 0.090909 0.500000
vt 0.090909 1.000000
vt -0.000000 0.500000
vt -0.000000 1.000000
vt 0.750000 0.490000
vt 0.620246 0.451901
vt 0.531688 0.349700
vt 0.512443 0.215844
vt 0.568620 0.092833
vt 0.682384 0.019722
vt 0.817616 0.019722
vt 0.931380 0.092833
vt 0.987557 0.215844
vt 0.968312 0.349700
vt 0.879754 0.451901
vn -0.2817 0.0000 0.9595
vn -0.7557 0.0000 0.6549
vn -0.9898 0.0000 0.1423
vn -0.9096 0.0000 -0.4154
vn -0.5406 0.0000 -0.8413
vn 0.0000 0.0000 -1.0000
vn 0.5406 0.0000 -0.8413
vn 0.9096 0.0000 -0.4154
vn 0.9898 0.0000 0.1423
vn 0.0000 -1.0000 0.0000
vn 0.7557 0.0000 0.6549
vn 0.2817 0.0000 0.9595
vn 0.0000 1.0000 -0.0000
usemtl None
s off
f 1/1/1 3/2/1 4/3/1 2/4/1
f 3/2/2 5/5/2 6/6/2 4/3/2
f 5/5/3 7/7/3 8/8/3 6/6/3
f 7/7/4 9/9/4 10/10/4 8/8/4
f 9/9/5 11/11/5 12/12/5 10/10/5
f 11/11/6 13/13/6 14/14/6 12/12/6
f 13/13/7 15/15/7 16/16/7 14/14/7
f 15/15/8 17/17/8 18/18/8 16/16/8
f 17/17/9 19/19/9 20/20/9 18/18/9
f 4/21/10 6/22/10 8/23/10 10/24/10 12/25/10 14/26/10 16/27/10 18/28/10 20/29/10 22/30/10 2/31/10
f 19/19/11 21/32/11 22/33/11 20/20/11
f 21/32/12 1/34/12 2/35/12 22/33/12
f 1/36/13 21/37/13 19/38/13 17/39/13 15/40/13 13/41/13 11/42/13 9/43/13 7/44/13 5/45/13 3/46/13
